<svg width="192" height="192" viewBox="0 0 192 192" fill="none" xmlns="http://www.w3.org/2000/svg">
 <circle cx="96" cy="96" r="96" fill="black"/>
<path d="M93.9791 99.0974L75.7362 131H62.054L58 123.829L89.9251 68H96.5128L104 81.5732L98.033 92.0081" stroke="white" stroke-width="6" stroke-linecap="round" stroke-linejoin="round"/>
<path d="M94.038 121H112.722L134 84.6932L128.81 76H120.425L110.83 92.3636H95.0759L93 95.9432L100.862 109.166L94.038 121Z" stroke="white" stroke-width="6" stroke-linecap="round" stroke-linejoin="round"/>
<path d="M70.5 123C71.3284 123 72 122.328 72 121.5C72 120.672 71.3284 120 70.5 120C69.6716 120 69 120.672 69 121.5C69 122.328 69.6716 123 70.5 123Z" stroke="white" stroke-width="3" stroke-linecap="round" stroke-linejoin="round"/>
<path d="M93.5 83C94.3284 83 95 82.3284 95 81.5C95 80.6716 94.3284 80 93.5 80C92.6716 80 92 80.6716 92 81.5C92 82.3284 92.6716 83 93.5 83Z" stroke="white" stroke-width="3" stroke-linecap="round" stroke-linejoin="round"/>
<path d="M109.5 105C110.328 105 111 104.328 111 103.5C111 102.672 110.328 102 109.5 102C108.672 102 108 102.672 108 103.5C108 104.328 108.672 105 109.5 105Z" stroke="white" stroke-width="3" stroke-linecap="round" stroke-linejoin="round"/>
<path d="M111 70L107 62" stroke="white" stroke-width="6" stroke-linecap="round" stroke-linejoin="round"/>
</svg>
